<svg xmlns="http://www.w3.org/2000/svg" viewBox="0 0 24 18" width="24" height="18">
	<style>
		tspan { white-space:pre }
		.shp0 { fill: #ffffff } 
	</style>
	<path id="Фигура 29 копия" class="shp0" d="M14.32 1C14.35 1.18 14.4 1.36 14.4 1.55C14.41 3.2 14.41 4.84 14.41 6.49C14.41 6.66 14.41 6.83 14.41 7.05C17.48 5.53 20.15 5.87 22.15 8.74C23.39 10.52 23.23 13.11 21.95 14.75C21.07 15.9 19.94 16.64 18.5 16.9C17.07 17.16 15.74 16.85 14.45 16.09C14.46 16.62 14.17 16.66 13.8 16.64C13.39 16.61 12.98 16.63 12.58 16.63C12.34 16.64 12.22 16.54 12.23 16.3C12.23 16.14 12.22 15.98 12.22 15.82C12.22 11.08 12.22 6.33 12.23 1.59C12.23 1.39 12.28 1.2 12.31 1C12.98 1 13.65 1 14.32 1ZM17.52 8.44C15.61 8.43 14.31 10.03 14.35 11.65C14.4 13.47 15.89 14.82 17.75 14.73C19.46 14.66 20.77 13.16 20.71 11.36C20.65 9.76 19.13 8.37 17.52 8.44ZM10.67 12.92C10.62 13.2 10.62 13.41 10.54 13.6C9.62 15.89 7.36 17.22 4.82 16.97C2.52 16.75 0.52 14.87 0.09 12.53C-0.48 9.49 1.77 6.54 4.87 6.19C7.38 5.91 9.69 7.41 10.55 9.56C10.6 9.7 10.64 9.84 10.68 9.97C10.76 10.21 10.65 10.3 10.43 10.3C9.82 10.3 9.21 10.32 8.6 10.28C8.47 10.28 8.3 10.13 8.22 10C7.22 8.43 5.39 7.98 3.79 8.92C1.95 9.99 1.83 12.76 3.51 14.06C4.94 15.17 7.17 14.88 8.17 13.23C8.3 13 8.46 12.91 8.73 12.91C9.35 12.93 9.97 12.92 10.67 12.92Z" />
</svg>