<svg xmlns="http://www.w3.org/2000/svg" width="71" height="71" viewBox="0 0 71 71">
  <metadata><?xpacket begin="﻿" id="W5M0MpCehiHzreSzNTczkc9d"?>
<x:xmpmeta xmlns:x="adobe:ns:meta/" x:xmptk="Adobe XMP Core 5.6-c142 79.160924, 2017/07/13-01:06:39        ">
   <rdf:RDF xmlns:rdf="http://www.w3.org/1999/02/22-rdf-syntax-ns#">
      <rdf:Description rdf:about=""/>
   </rdf:RDF>
</x:xmpmeta>
                                                                                                    
                                                                                                    
                                                                                                    
                                                                                                    
                                                                                                    
                                                                                                    
                                                                                                    
                                                                                                    
                                                                                                    
                                                                                                    
                                                                                                    
                                                                                                    
                                                                                                    
                                                                                                    
                                                                                                    
                                                                                                    
                                                                                                    
                                                                                                    
                                                                                                    
                                                                                                    
                           
<?xpacket end="w"?></metadata>
<defs>
    <style>
      .cls-1 {
        fill: #111110;
        fill-rule: evenodd;
      }
    </style>
  </defs>
  <path id="Forma_1_копия_2" data-name="Forma 1 копия 2" class="cls-1" d="M468.5,3743.48a23.02,23.02,0,1,0,23.02,23.02A23.048,23.048,0,0,0,468.5,3743.48Zm0,16.64a2.08,2.08,0,1,1,2.08-2.08A2.08,2.08,0,0,1,468.5,3760.12Zm10.381,22.12v-10.7l4.318-4.16v-5.04h-4.16v3.28l-4.318,4.15v14.53a18.8,18.8,0,0,1-4.122.94v-21.32a6.245,6.245,0,1,0-4.16.01v21.32a18.575,18.575,0,0,1-4.16-.95v-14.53l-4.318-4.15v-3.28H453.8v5.04l4.318,4.16v10.7A18.859,18.859,0,1,1,478.881,3782.24Zm20.085-23.18a30.928,30.928,0,0,0-3.651-8.8l2.979-4.17-9.356-9.36-4.168,2.98a30.935,30.935,0,0,0-8.792-3.65l-0.843-5.06H461.9l-0.843,5.06a31.122,31.122,0,0,0-8.777,3.64l-4.195-3-9.355,9.36,2.994,4.19a30.962,30.962,0,0,0-3.644,8.77l-5.084.84v13.24l5.074,0.84a30.932,30.932,0,0,0,3.632,8.77l-3,4.2,9.356,9.36,4.186-2.99a31.117,31.117,0,0,0,8.772,3.65l0.845,5.07H475.1l0.842-5.05a30.958,30.958,0,0,0,8.8-3.64l4.176,2.98,9.356-9.35-2.972-4.16a31.015,31.015,0,0,0,3.663-8.8l5.043-.85V3759.9Zm0.874,10.55-4.374.73-0.278,1.41a26.86,26.86,0,0,1-4.13,9.92l-0.809,1.2,2.584,3.62-4.372,4.37-3.626-2.59-1.2.8a27.039,27.039,0,0,1-9.919,4.11l-1.417.27-0.731,4.39h-6.183l-0.733-4.4-1.412-.28a26.934,26.934,0,0,1-9.9-4.12l-1.2-.81-3.641,2.6-4.371-4.37,2.606-3.65-0.8-1.2a26.864,26.864,0,0,1-4.1-9.89l-0.277-1.41-4.408-.74v-6.18l4.414-.74,0.278-1.41a26.908,26.908,0,0,1,4.111-9.89l0.807-1.2-2.6-3.64,4.372-4.37,3.645,2.6,1.2-.8a26.79,26.79,0,0,1,9.9-4.11l1.415-.28,0.732-4.39h6.183l0.732,4.39,1.414,0.28a26.852,26.852,0,0,1,9.914,4.12l1.2,0.8,3.62-2.58,4.372,4.37-2.587,3.62,0.806,1.2a26.886,26.886,0,0,1,4.116,9.92l0.276,1.42,4.369,0.73v6.18Z" transform="translate(-433 -3731)"/>
</svg>
