<svg xmlns="http://www.w3.org/2000/svg" width="72" height="72" viewBox="0 0 72 72">
  <metadata><?xpacket begin="﻿" id="W5M0MpCehiHzreSzNTczkc9d"?>
<x:xmpmeta xmlns:x="adobe:ns:meta/" x:xmptk="Adobe XMP Core 5.6-c142 79.160924, 2017/07/13-01:06:39        ">
   <rdf:RDF xmlns:rdf="http://www.w3.org/1999/02/22-rdf-syntax-ns#">
      <rdf:Description rdf:about=""/>
   </rdf:RDF>
</x:xmpmeta>
                                                                                                    
                                                                                                    
                                                                                                    
                                                                                                    
                                                                                                    
                                                                                                    
                                                                                                    
                                                                                                    
                                                                                                    
                                                                                                    
                                                                                                    
                                                                                                    
                                                                                                    
                                                                                                    
                                                                                                    
                                                                                                    
                                                                                                    
                                                                                                    
                                                                                                    
                                                                                                    
                           
<?xpacket end="w"?></metadata>
<defs>
    <style>
      .cls-1 {
        fill: #111110;
        fill-rule: evenodd;
      }
    </style>
  </defs>
  <path id="Фигура_11_копия" data-name="Фигура 11 копия" class="cls-1" d="M507.891,4043.34h-2.11v-35.86a6.328,6.328,0,0,0-6.328-6.32H484.034a32.367,32.367,0,0,0-8.232-16.2c-0.061-.07-0.109-0.12-0.144-0.16A2.123,2.123,0,0,0,474,3984a2.085,2.085,0,0,0-1.652.8,1.416,1.416,0,0,0-.139.15,32.057,32.057,0,0,0-8.247,16.21H448.547a6.328,6.328,0,0,0-6.328,6.32v35.86h-2.11a2.113,2.113,0,0,0-2.109,2.11A10.558,10.558,0,0,0,448.547,4056h50.906A10.558,10.558,0,0,0,510,4045.45,2.113,2.113,0,0,0,507.891,4043.34Zm-8.438-37.97a2.114,2.114,0,0,1,2.109,2.11v35.86h-4.218a8.32,8.32,0,0,0-2.564-5.99,8.631,8.631,0,0,0-6.014-2.44,8.315,8.315,0,0,0-1.115.07,8.43,8.43,0,0,0-7.323-4.29v-5.97c0.118-.32.277-0.71,0.457-1.14l2.271,2.27a2.108,2.108,0,0,0,2.982-2.98l-3.576-3.58a38.165,38.165,0,0,0,2.085-12.53c0-.46-0.012-0.93-0.033-1.39h14.939Zm-44.437,37.97a4.228,4.228,0,0,1,4.218-4.22,4.33,4.33,0,0,1,1.568.31,2.1,2.1,0,0,0,2.821-1.4,4.211,4.211,0,0,1,4.049-3.12,4.229,4.229,0,0,0,4.219-4.22v-4.22h4.218v4.22a4.229,4.229,0,0,0,4.219,4.22,4.211,4.211,0,0,1,4.049,3.12,2.1,2.1,0,0,0,2.821,1.4,4.321,4.321,0,0,1,5.927,3.91H455.016Zm16.213-21.09c-0.075-.18-0.154-0.37-0.234-0.56-0.417-.99-0.929-2.22-1.424-3.66h8.858c-0.488,1.42-.991,2.62-1.4,3.6-0.088.22-.175,0.42-0.256,0.62h-5.541Zm9.1-15.49a33.988,33.988,0,0,1-.729,7.05H468.4a33.991,33.991,0,0,1-.73-7.05,26.886,26.886,0,0,1,.59-5.6h11.471A26.76,26.76,0,0,1,480.328,4006.76ZM474,3989.3a28.4,28.4,0,0,1,4.473,7.64H469.52A28.155,28.155,0,0,1,474,3989.3Zm-27.558,18.18a2.115,2.115,0,0,1,2.11-2.11h14.938c-0.02.46-.032,0.93-0.032,1.39a38.58,38.58,0,0,0,2.091,12.52l-3.582,3.59a2.108,2.108,0,0,0,2.982,2.98l2.269-2.27c0.182,0.44.341,0.82,0.459,1.14v5.97a8.433,8.433,0,0,0-7.324,4.29,8.29,8.29,0,0,0-1.114-.07,8.442,8.442,0,0,0-8.437,8.43h-4.36v-35.86Zm53.016,44.3H448.547a6.334,6.334,0,0,1-5.967-4.22h62.84A6.334,6.334,0,0,1,499.453,4051.78Zm-23.344-44.3a2.109,2.109,0,1,1-2.109-2.11A2.106,2.106,0,0,1,476.109,4007.48Z" transform="translate(-438 -3984)"/>
</svg>
