<svg xmlns="http://www.w3.org/2000/svg" viewBox="0 0 81 51" width="81" height="51">
	<style>
		tspan { white-space:pre }
		.shp0 { fill: #111110 } 
	</style>
	<path id="Фигура 22" class="shp0" d="M63.96 35.28C62.37 32.01 56.68 27.46 51.19 23.07C48.12 20.63 45.22 18.31 43.38 16.49C42.92 16.03 42.22 15.88 41.61 16.1C40.48 16.51 39.77 16.82 39.22 17.06C38.38 17.44 38.09 17.56 36.96 17.68C36.45 17.73 36 17.99 35.72 18.41C33.33 21.93 30.86 21.63 29.21 21.08C28.69 20.91 28.59 20.69 28.54 20.47C28.19 19.01 29.97 15.6 32.27 13.33C37.76 7.91 40.58 6.55 46.56 9.19C53.34 12.18 60.13 14.52 60.19 14.55C61.08 14.85 62.04 14.39 62.34 13.52C62.65 12.65 62.18 11.7 61.3 11.4C61.24 11.37 54.58 9.08 47.94 6.14C40.2 2.72 35.95 4.97 29.89 10.97C27.58 13.25 24.45 17.86 25.26 21.24C25.6 22.68 26.63 23.75 28.15 24.25C31.98 25.49 35.47 24.3 38.07 20.89C39.14 20.73 39.72 20.49 40.6 20.1C40.92 19.96 41.29 19.8 41.78 19.6C43.71 21.39 46.32 23.47 49.06 25.66C54.02 29.63 59.65 34.12 60.92 36.72C61.54 38.01 60.87 38.84 60.41 39.23C59.74 39.79 58.83 39.97 58.33 39.63C57.79 39.26 57.07 39.24 56.51 39.57C55.94 39.9 55.63 40.53 55.7 41.18C55.81 42.24 54.83 42.85 54.4 43.06C53.32 43.6 52.2 43.5 51.78 43.12C51.3 42.68 50.62 42.56 50.02 42.78C49.42 43 49 43.55 48.94 44.18C48.84 45.27 48.02 46.32 46.95 46.73C46.44 46.93 45.69 47.04 45.02 46.44C44.6 46.06 44.02 45.92 43.47 46.05C42.92 46.18 42.48 46.58 42.29 47.1C42.22 47.27 42.08 47.67 40.5 47.67C39.38 47.67 37.35 46.92 36.37 46.27C35.18 45.5 27.75 40.03 21.34 34.72C20.44 33.97 18.88 32.36 17.5 30.94C16.28 29.68 15.16 28.54 14.59 28.06C13.87 27.46 12.8 27.55 12.21 28.25C11.61 28.96 11.69 30.01 12.41 30.6C12.93 31.04 13.94 32.1 15.06 33.25C16.56 34.8 18.12 36.41 19.17 37.28C25.45 42.47 33 48.08 34.51 49.06C35.75 49.87 38.43 51 40.5 51C42.16 51 43.44 50.62 44.33 49.89C45.52 50.34 46.87 50.35 48.17 49.85C49.7 49.26 50.97 48.08 51.68 46.64C53.01 46.92 54.53 46.73 55.92 46.04C57.27 45.37 58.25 44.34 58.73 43.13C60.08 43.2 61.46 42.73 62.61 41.76C64.54 40.13 65.08 37.58 63.96 35.28ZM33.75 7.66L18.56 7.66C17.63 7.66 16.87 8.41 16.87 9.33C16.87 10.25 17.63 11 18.56 11L33.75 11C34.68 11 35.44 10.25 35.44 9.33C35.44 8.41 34.68 7.66 33.75 7.66ZM68.9 31.73C68.38 30.97 67.33 30.76 66.56 31.28L61.62 34.56C60.85 35.07 60.65 36.1 61.17 36.87C61.49 37.35 62.03 37.61 62.57 37.61C62.89 37.61 63.22 37.52 63.51 37.32L68.44 34.05C69.21 33.53 69.42 32.5 68.9 31.73ZM58.42 39.69C57.22 38.75 51.81 33.29 48.47 29.84C47.83 29.18 46.76 29.15 46.09 29.79C45.41 30.43 45.39 31.49 46.03 32.15C46.9 33.04 54.55 40.92 56.33 42.31C56.64 42.55 57.01 42.67 57.38 42.67C57.87 42.67 58.37 42.45 58.7 42.03C59.28 41.31 59.16 40.26 58.42 39.69ZM51.68 43.03C49.66 41.44 44.58 36.1 43.43 34.87C42.8 34.19 41.73 34.15 41.05 34.77C40.36 35.39 40.31 36.45 40.95 37.13C41.01 37.19 47.07 43.66 49.57 45.64C49.88 45.88 50.26 46 50.62 46C51.12 46 51.61 45.78 51.94 45.38C52.53 44.66 52.41 43.61 51.68 43.03ZM44.97 46.39C42.56 44.39 37.63 39.21 36.67 38.19C36.03 37.52 34.96 37.48 34.29 38.11C33.6 38.74 33.57 39.8 34.21 40.47C35.59 41.93 40.3 46.87 42.79 48.94C43.11 49.2 43.49 49.33 43.88 49.33C44.35 49.33 44.83 49.13 45.17 48.74C45.77 48.03 45.68 46.98 44.97 46.39ZM19.72 4.79C16.83 2.08 5.26 1.2 1.79 1C1.31 0.97 0.87 1.13 0.53 1.45C0.19 1.76 0 2.2 0 2.66L0 32.66C0 33.58 0.76 34.33 1.69 34.33L11.81 34.33C12.54 34.33 13.19 33.87 13.42 33.18C13.66 32.43 19.48 14.81 20.24 6.14C20.29 5.63 20.1 5.13 19.72 4.79ZM10.58 31L3.37 31L3.37 4.45C8.8 4.87 14.65 5.79 16.78 6.81C15.88 14.11 11.84 27.08 10.58 31ZM79.31 4.33C66.06 4.33 58.71 7.68 58.4 7.82C57.97 8.02 57.64 8.4 57.5 8.86C57.37 9.31 57.44 9.8 57.69 10.21C59.77 13.53 66.31 31.95 67.56 36.44C67.76 37.17 68.43 37.67 69.19 37.67L79.31 37.67C80.24 37.67 81 36.92 81 36L81 5.99C81 5.07 80.24 4.33 79.31 4.33ZM77.63 34.33L70.45 34.33C68.85 29.18 64.12 15.76 61.49 10.22C64.06 9.35 69.6 7.87 77.63 7.68L77.63 34.33Z" />
</svg>