<svg xmlns="http://www.w3.org/2000/svg" viewBox="0 0 24 22" width="24" height="22">
	<style>
		tspan { white-space:pre }
		.shp0 { fill: #ffffff } 
	</style>
	<path id="Фигура 24" class="shp0" d="M23.09 8.92C23.09 8.89 23.09 8.84 23.07 8.81C23.04 8.68 22.96 8.57 22.85 8.49L19.62 6.25L19.62 3.85C19.62 3.53 19.36 3.27 19.04 3.27L15.32 3.27L12.16 1.08C11.97 0.94 11.7 0.94 11.51 1.08L8.33 3.27L4.63 3.27C4.31 3.27 4.05 3.53 4.05 3.85L4.05 6.22L0.8 8.46C0.65 8.57 0.56 8.74 0.56 8.92C0.56 8.92 0.56 8.93 0.56 8.93L0.57 21.42C0.57 21.58 0.63 21.72 0.74 21.83C0.85 21.94 1 22 1.15 22C1.15 22 1.15 22 1.15 22L22.53 21.97C22.85 21.97 23.11 21.71 23.11 21.39L23.09 8.92ZM19.62 7.65L21.46 8.93L19.62 10.21L19.62 7.65ZM11.83 2.25L13.3 3.27L10.36 3.27L11.83 2.25ZM5.2 4.42L18.46 4.42L18.46 11.01L14.01 14.1L12.2 12.69C12.19 12.69 12.19 12.69 12.19 12.69C11.98 12.54 11.7 12.53 11.49 12.69L9.66 14.11L5.2 11.04L5.2 4.42ZM4.05 7.62L4.05 10.24L2.15 8.93L4.05 7.62ZM1.71 10.03L8.7 14.85L1.73 20.25L1.71 10.03ZM2.84 20.84L11.84 13.88L20.81 20.82L2.84 20.84ZM14.97 14.84L21.94 10L21.95 20.25L14.97 14.84ZM15.74 6.73L7.92 6.73C7.6 6.73 7.34 6.99 7.34 7.3C7.34 7.62 7.6 7.88 7.92 7.88L15.74 7.88C16.06 7.88 16.32 7.62 16.32 7.3C16.32 6.99 16.06 6.73 15.74 6.73ZM15.74 9.72L7.92 9.72C7.6 9.72 7.34 9.98 7.34 10.3C7.34 10.62 7.6 10.88 7.92 10.88L15.74 10.88C16.06 10.88 16.32 10.62 16.32 10.3C16.32 9.98 16.06 9.72 15.74 9.72Z" />
</svg>