<svg xmlns="http://www.w3.org/2000/svg" viewBox="0 0 27 18" width="27" height="18">
	<style>
		tspan { white-space:pre }
		.shp0 { fill: #ffffff } 
	</style>
	<path id="Фигура 23" class="shp0" d="M16.26 7.65L22.75 7.65C23.07 7.65 23.33 7.38 23.33 7.05C23.33 6.73 23.07 6.46 22.75 6.46L16.26 6.46C15.94 6.46 15.68 6.73 15.68 7.05C15.68 7.38 15.94 7.65 16.26 7.65ZM16.26 10.03L22.75 10.03C23.07 10.03 23.33 9.76 23.33 9.43C23.33 9.1 23.07 8.84 22.75 8.84L16.26 8.84C15.94 8.84 15.68 9.1 15.68 9.43C15.68 9.76 15.94 10.03 16.26 10.03ZM16.26 12.41L22.75 12.41C23.07 12.41 23.33 12.14 23.33 11.81C23.33 11.48 23.07 11.22 22.75 11.22L16.26 11.22C15.94 11.22 15.68 11.48 15.68 11.81C15.68 12.14 15.94 12.41 16.26 12.41ZM25.8 0.87L1.87 0.87C1.39 0.87 1 1.27 1 1.76L1 17.11C1 17.6 1.39 18 1.87 18L25.8 18C26.28 18 26.67 17.6 26.67 17.11L26.67 1.76C26.67 1.27 26.28 0.87 25.8 0.87ZM24.92 16.21L2.74 16.21L2.74 2.65L24.92 2.65L24.92 16.21ZM6.43 10.06C5.59 10.66 5.04 11.66 5.04 12.79L5.04 14.13C5.04 14.46 5.3 14.73 5.62 14.73L10.94 14.73C11.26 14.73 11.52 14.46 11.52 14.13L11.52 12.79C11.52 11.66 10.97 10.66 10.13 10.06C10.97 9.46 11.52 8.46 11.52 7.34C11.52 5.51 10.07 4.02 8.28 4.02C6.49 4.02 5.04 5.51 5.04 7.34C5.04 8.46 5.59 9.46 6.43 10.06ZM10.36 12.79L10.36 13.54L6.2 13.54L6.2 12.79C6.2 11.61 7.13 10.66 8.28 10.66C9.43 10.66 10.36 11.61 10.36 12.79ZM8.28 5.21C9.43 5.21 10.36 6.16 10.36 7.34C10.36 8.51 9.43 9.47 8.28 9.47C7.13 9.47 6.2 8.51 6.2 7.34C6.2 6.16 7.13 5.21 8.28 5.21Z" />
</svg>